<svg xmlns="http://www.w3.org/2000/svg" viewBox="0 0 24 24" width="24" height="24">
  <path
    fill="currentColor"
    d="M12 2C5.37 2 0 7.37 0 14a11.58 11.58 0 007.77 10.91c.57.11.78-.25.78-.55v-1.92c-3.17.69-3.84-1.52-3.84-1.52-.52-1.31-1.26-1.66-1.26-1.66-1.03-.7.08-.68.08-.68 1.14.08 1.74 1.16 1.74 1.16 1.01 1.69 2.65 1.2 3.29.92.1-.73.39-1.2.71-1.47-2.5-.29-5.14-1.25-5.14-5.56a4.35 4.35 0 011.16-3c.1-.28-.47-1.39-.81-1.68 0 0-.67-.23 0-.68 0 0 .44-.08 1.43.66a4.87 4.87 0 012.51 0c1-.73 1.42-.66 1.42-.66.83.29.91 1 .91 1.26a4.36 4.36 0 011.14 3c0 4.32-2.65 5.28-5.15 5.57.4.35.76 1.05.76 2.13v3.14c0 .3.21.66.79.55A11.58 11.58 0 0024 14c0-6.63-5.37-12-12-12z"
  />
</svg>
