<svg xmlns="http://www.w3.org/2000/svg" viewBox="0 0 24 24" width="24" height="24">
  <path
    fill="currentColor"
    d="M2 0C.89 0 0 .89 0 2s.89 2 2 2s2-.89 2-2s-.89-2-2-2zm.77 2h-.06a1.23 1.23 0 00-1.23 1.23v17.54a1.23 1.23 0 001.23 1.23h.06A1.23 1.23 0 003 20.77V3.23A1.23 1.23 0 001.77 2zM6 6.14C6 5.28 5.37 4.65 4.5 4.65C3.63 4.65 3 5.28 3 6.14C3 7.01 3.63 7.64 4.5 7.64C5.37 7.64 6 7.01 6 6.14zM20.07 20.07h-3.49v-5.45c0-1.3-.02-2.98-1.8-2.98c-1.8 0-2.08 1.4-2.08 2.86v5.57H9V9.78h3.32v1.53h.05c.46-.87 1.59-1.8 3.28-1.8c3.5 0 4.15 2.31 4.15 5.31v6.25z"
  />
</svg>
